<mxfile host="app.diagrams.net" modified="2023-09-03T07:37:17.783Z" agent="Mozilla/5.0 (Windows NT 10.0; Win64; x64) AppleWebKit/537.36 (KHTML, like Gecko) Chrome/116.0.0.0 Safari/537.36 Edg/116.0.1938.69" etag="kmro2PyDxAMgwtFQac10" version="21.7.2" type="device">
  <diagram name="Page-1" id="c4acf3e9-155e-7222-9cf6-157b1a14988f">
    <mxGraphModel dx="1434" dy="2116" grid="1" gridSize="10" guides="1" tooltips="1" connect="1" arrows="1" fold="1" page="1" pageScale="1" pageWidth="827" pageHeight="1169" background="none" math="0" shadow="0">
      <root>
        <mxCell id="0" />
        <mxCell id="1" parent="0" />
        <mxCell id="-eZy1OZoISmmpmNBAfcS-2" value="UserStoryInformationAspect" style="swimlane;fontStyle=0;childLayout=stackLayout;horizontal=1;startSize=26;fillColor=none;horizontalStack=0;resizeParent=1;resizeParentMax=0;resizeLast=0;collapsible=1;marginBottom=0;whiteSpace=wrap;html=1;" parent="1" vertex="1">
          <mxGeometry x="140" y="-900" width="265" height="286" as="geometry" />
        </mxCell>
        <mxCell id="-eZy1OZoISmmpmNBAfcS-3" value="+ Id: UserStoryReference" style="text;strokeColor=none;fillColor=none;align=left;verticalAlign=top;spacingLeft=4;spacingRight=4;overflow=hidden;rotatable=0;points=[[0,0.5],[1,0.5]];portConstraint=eastwest;whiteSpace=wrap;html=1;" parent="-eZy1OZoISmmpmNBAfcS-2" vertex="1">
          <mxGeometry y="26" width="265" height="26" as="geometry" />
        </mxCell>
        <mxCell id="-eZy1OZoISmmpmNBAfcS-4" value="+ Title: string" style="text;strokeColor=none;fillColor=none;align=left;verticalAlign=top;spacingLeft=4;spacingRight=4;overflow=hidden;rotatable=0;points=[[0,0.5],[1,0.5]];portConstraint=eastwest;whiteSpace=wrap;html=1;" parent="-eZy1OZoISmmpmNBAfcS-2" vertex="1">
          <mxGeometry y="52" width="265" height="26" as="geometry" />
        </mxCell>
        <mxCell id="-eZy1OZoISmmpmNBAfcS-5" value="+ Description: string" style="text;strokeColor=none;fillColor=none;align=left;verticalAlign=top;spacingLeft=4;spacingRight=4;overflow=hidden;rotatable=0;points=[[0,0.5],[1,0.5]];portConstraint=eastwest;whiteSpace=wrap;html=1;" parent="-eZy1OZoISmmpmNBAfcS-2" vertex="1">
          <mxGeometry y="78" width="265" height="26" as="geometry" />
        </mxCell>
        <mxCell id="mf8AkyiIo8afohmn_5yX-3" value="+ Owner: UserReference" style="text;strokeColor=none;fillColor=none;align=left;verticalAlign=top;spacingLeft=4;spacingRight=4;overflow=hidden;rotatable=0;points=[[0,0.5],[1,0.5]];portConstraint=eastwest;whiteSpace=wrap;html=1;" parent="-eZy1OZoISmmpmNBAfcS-2" vertex="1">
          <mxGeometry y="104" width="265" height="26" as="geometry" />
        </mxCell>
        <mxCell id="mf8AkyiIo8afohmn_5yX-6" value="+ StartedOn: DateTime" style="text;strokeColor=none;fillColor=none;align=left;verticalAlign=top;spacingLeft=4;spacingRight=4;overflow=hidden;rotatable=0;points=[[0,0.5],[1,0.5]];portConstraint=eastwest;whiteSpace=wrap;html=1;" parent="-eZy1OZoISmmpmNBAfcS-2" vertex="1">
          <mxGeometry y="130" width="265" height="26" as="geometry" />
        </mxCell>
        <mxCell id="mf8AkyiIo8afohmn_5yX-7" value="+ Status: UserStoryStatus" style="text;strokeColor=none;fillColor=none;align=left;verticalAlign=top;spacingLeft=4;spacingRight=4;overflow=hidden;rotatable=0;points=[[0,0.5],[1,0.5]];portConstraint=eastwest;whiteSpace=wrap;html=1;" parent="-eZy1OZoISmmpmNBAfcS-2" vertex="1">
          <mxGeometry y="156" width="265" height="26" as="geometry" />
        </mxCell>
        <mxCell id="mf8AkyiIo8afohmn_5yX-4" value="+ ModifiedOn: DateTime" style="text;strokeColor=none;fillColor=none;align=left;verticalAlign=top;spacingLeft=4;spacingRight=4;overflow=hidden;rotatable=0;points=[[0,0.5],[1,0.5]];portConstraint=eastwest;whiteSpace=wrap;html=1;" parent="-eZy1OZoISmmpmNBAfcS-2" vertex="1">
          <mxGeometry y="182" width="265" height="26" as="geometry" />
        </mxCell>
        <mxCell id="mf8AkyiIo8afohmn_5yX-5" value="+ ModifiedBy: UserReference" style="text;strokeColor=none;fillColor=none;align=left;verticalAlign=top;spacingLeft=4;spacingRight=4;overflow=hidden;rotatable=0;points=[[0,0.5],[1,0.5]];portConstraint=eastwest;whiteSpace=wrap;html=1;" parent="-eZy1OZoISmmpmNBAfcS-2" vertex="1">
          <mxGeometry y="208" width="265" height="26" as="geometry" />
        </mxCell>
        <mxCell id="mf8AkyiIo8afohmn_5yX-1" value="+ CreatedOn: DateTime" style="text;strokeColor=none;fillColor=none;align=left;verticalAlign=top;spacingLeft=4;spacingRight=4;overflow=hidden;rotatable=0;points=[[0,0.5],[1,0.5]];portConstraint=eastwest;whiteSpace=wrap;html=1;" parent="-eZy1OZoISmmpmNBAfcS-2" vertex="1">
          <mxGeometry y="234" width="265" height="26" as="geometry" />
        </mxCell>
        <mxCell id="mf8AkyiIo8afohmn_5yX-2" value="+ CreatedBy: UserReference" style="text;strokeColor=none;fillColor=none;align=left;verticalAlign=top;spacingLeft=4;spacingRight=4;overflow=hidden;rotatable=0;points=[[0,0.5],[1,0.5]];portConstraint=eastwest;whiteSpace=wrap;html=1;" parent="-eZy1OZoISmmpmNBAfcS-2" vertex="1">
          <mxGeometry y="260" width="265" height="26" as="geometry" />
        </mxCell>
        <mxCell id="mf8AkyiIo8afohmn_5yX-12" value="&lt;p style=&quot;margin:0px;margin-top:4px;text-align:center;&quot;&gt;&lt;i&gt;&amp;lt;&amp;lt;Struct&amp;gt;&amp;gt;&lt;/i&gt;&lt;br&gt;&lt;b&gt;UserStoryStatus&lt;/b&gt;&lt;/p&gt;&lt;hr size=&quot;1&quot;&gt;&lt;p style=&quot;margin:0px;margin-left:4px;&quot;&gt;INITIAL: Initial&lt;/p&gt;&lt;p style=&quot;margin:0px;margin-left:4px;&quot;&gt;INPROGRESS: In Progress&lt;/p&gt;&lt;p style=&quot;margin:0px;margin-left:4px;&quot;&gt;COMPLETE: Complete&lt;/p&gt;&lt;p style=&quot;margin:0px;margin-left:4px;&quot;&gt;ABORT: Abort&lt;/p&gt;&lt;p style=&quot;margin:0px;margin-left:4px;&quot;&gt;&lt;br&gt;&lt;/p&gt;" style="verticalAlign=top;align=left;overflow=fill;fontSize=12;fontFamily=Helvetica;html=1;whiteSpace=wrap;" parent="1" vertex="1">
          <mxGeometry x="410" y="-562" width="190" height="110" as="geometry" />
        </mxCell>
        <mxCell id="ZDAbo7Fi6QDQOSL8yRWi-1" value="UserStoryReference" style="swimlane;fontStyle=0;childLayout=stackLayout;horizontal=1;startSize=26;fillColor=none;horizontalStack=0;resizeParent=1;resizeParentMax=0;resizeLast=0;collapsible=1;marginBottom=0;" vertex="1" parent="1">
          <mxGeometry x="85" y="-562" width="140" height="104" as="geometry" />
        </mxCell>
        <mxCell id="ZDAbo7Fi6QDQOSL8yRWi-2" value="Code: string" style="text;strokeColor=none;fillColor=none;align=left;verticalAlign=top;spacingLeft=4;spacingRight=4;overflow=hidden;rotatable=0;points=[[0,0.5],[1,0.5]];portConstraint=eastwest;" vertex="1" parent="ZDAbo7Fi6QDQOSL8yRWi-1">
          <mxGeometry y="26" width="140" height="26" as="geometry" />
        </mxCell>
        <mxCell id="ZDAbo7Fi6QDQOSL8yRWi-3" value="FieldName: string[0..1]" style="text;strokeColor=none;fillColor=none;align=left;verticalAlign=top;spacingLeft=4;spacingRight=4;overflow=hidden;rotatable=0;points=[[0,0.5],[1,0.5]];portConstraint=eastwest;" vertex="1" parent="ZDAbo7Fi6QDQOSL8yRWi-1">
          <mxGeometry y="52" width="140" height="26" as="geometry" />
        </mxCell>
        <mxCell id="ZDAbo7Fi6QDQOSL8yRWi-4" value="CacheCode: string[0..1]" style="text;strokeColor=none;fillColor=none;align=left;verticalAlign=top;spacingLeft=4;spacingRight=4;overflow=hidden;rotatable=0;points=[[0,0.5],[1,0.5]];portConstraint=eastwest;" vertex="1" parent="ZDAbo7Fi6QDQOSL8yRWi-1">
          <mxGeometry y="78" width="140" height="26" as="geometry" />
        </mxCell>
        <mxCell id="ZDAbo7Fi6QDQOSL8yRWi-10" value="UserStory" style="html=1;whiteSpace=wrap;" vertex="1" parent="1">
          <mxGeometry x="140" y="-1020" width="570" height="50" as="geometry" />
        </mxCell>
        <mxCell id="ZDAbo7Fi6QDQOSL8yRWi-11" value="1" style="endArrow=open;html=1;endSize=12;startArrow=diamondThin;startSize=14;startFill=0;edgeStyle=orthogonalEdgeStyle;align=left;verticalAlign=bottom;rounded=0;exitX=0.5;exitY=1;exitDx=0;exitDy=0;" edge="1" parent="1" source="ZDAbo7Fi6QDQOSL8yRWi-10" target="-eZy1OZoISmmpmNBAfcS-2">
          <mxGeometry x="0.8202" y="-2" relative="1" as="geometry">
            <mxPoint x="300" y="-790" as="sourcePoint" />
            <mxPoint x="460" y="-790" as="targetPoint" />
            <mxPoint y="1" as="offset" />
          </mxGeometry>
        </mxCell>
        <mxCell id="ZDAbo7Fi6QDQOSL8yRWi-12" value="TaskAspect" style="swimlane;fontStyle=0;childLayout=stackLayout;horizontal=1;startSize=26;fillColor=none;horizontalStack=0;resizeParent=1;resizeParentMax=0;resizeLast=0;collapsible=1;marginBottom=0;whiteSpace=wrap;html=1;" vertex="1" parent="1">
          <mxGeometry x="440" y="-900" width="265" height="286" as="geometry" />
        </mxCell>
        <mxCell id="ZDAbo7Fi6QDQOSL8yRWi-13" value="+ Id: TaskReference" style="text;strokeColor=none;fillColor=none;align=left;verticalAlign=top;spacingLeft=4;spacingRight=4;overflow=hidden;rotatable=0;points=[[0,0.5],[1,0.5]];portConstraint=eastwest;whiteSpace=wrap;html=1;" vertex="1" parent="ZDAbo7Fi6QDQOSL8yRWi-12">
          <mxGeometry y="26" width="265" height="26" as="geometry" />
        </mxCell>
        <mxCell id="ZDAbo7Fi6QDQOSL8yRWi-14" value="+ Title: string" style="text;strokeColor=none;fillColor=none;align=left;verticalAlign=top;spacingLeft=4;spacingRight=4;overflow=hidden;rotatable=0;points=[[0,0.5],[1,0.5]];portConstraint=eastwest;whiteSpace=wrap;html=1;" vertex="1" parent="ZDAbo7Fi6QDQOSL8yRWi-12">
          <mxGeometry y="52" width="265" height="26" as="geometry" />
        </mxCell>
        <mxCell id="ZDAbo7Fi6QDQOSL8yRWi-15" value="+ Description: string" style="text;strokeColor=none;fillColor=none;align=left;verticalAlign=top;spacingLeft=4;spacingRight=4;overflow=hidden;rotatable=0;points=[[0,0.5],[1,0.5]];portConstraint=eastwest;whiteSpace=wrap;html=1;" vertex="1" parent="ZDAbo7Fi6QDQOSL8yRWi-12">
          <mxGeometry y="78" width="265" height="26" as="geometry" />
        </mxCell>
        <mxCell id="ZDAbo7Fi6QDQOSL8yRWi-16" value="+ Owner: UserReference" style="text;strokeColor=none;fillColor=none;align=left;verticalAlign=top;spacingLeft=4;spacingRight=4;overflow=hidden;rotatable=0;points=[[0,0.5],[1,0.5]];portConstraint=eastwest;whiteSpace=wrap;html=1;" vertex="1" parent="ZDAbo7Fi6QDQOSL8yRWi-12">
          <mxGeometry y="104" width="265" height="26" as="geometry" />
        </mxCell>
        <mxCell id="ZDAbo7Fi6QDQOSL8yRWi-17" value="+ StartedOn: DateTime" style="text;strokeColor=none;fillColor=none;align=left;verticalAlign=top;spacingLeft=4;spacingRight=4;overflow=hidden;rotatable=0;points=[[0,0.5],[1,0.5]];portConstraint=eastwest;whiteSpace=wrap;html=1;" vertex="1" parent="ZDAbo7Fi6QDQOSL8yRWi-12">
          <mxGeometry y="130" width="265" height="26" as="geometry" />
        </mxCell>
        <mxCell id="ZDAbo7Fi6QDQOSL8yRWi-18" value="+ Status: TaskStatus" style="text;strokeColor=none;fillColor=none;align=left;verticalAlign=top;spacingLeft=4;spacingRight=4;overflow=hidden;rotatable=0;points=[[0,0.5],[1,0.5]];portConstraint=eastwest;whiteSpace=wrap;html=1;" vertex="1" parent="ZDAbo7Fi6QDQOSL8yRWi-12">
          <mxGeometry y="156" width="265" height="26" as="geometry" />
        </mxCell>
        <mxCell id="ZDAbo7Fi6QDQOSL8yRWi-19" value="+ ModifiedOn: DateTime" style="text;strokeColor=none;fillColor=none;align=left;verticalAlign=top;spacingLeft=4;spacingRight=4;overflow=hidden;rotatable=0;points=[[0,0.5],[1,0.5]];portConstraint=eastwest;whiteSpace=wrap;html=1;" vertex="1" parent="ZDAbo7Fi6QDQOSL8yRWi-12">
          <mxGeometry y="182" width="265" height="26" as="geometry" />
        </mxCell>
        <mxCell id="ZDAbo7Fi6QDQOSL8yRWi-20" value="+ ModifiedBy: UserReference" style="text;strokeColor=none;fillColor=none;align=left;verticalAlign=top;spacingLeft=4;spacingRight=4;overflow=hidden;rotatable=0;points=[[0,0.5],[1,0.5]];portConstraint=eastwest;whiteSpace=wrap;html=1;" vertex="1" parent="ZDAbo7Fi6QDQOSL8yRWi-12">
          <mxGeometry y="208" width="265" height="26" as="geometry" />
        </mxCell>
        <mxCell id="ZDAbo7Fi6QDQOSL8yRWi-21" value="+ CreatedOn: DateTime" style="text;strokeColor=none;fillColor=none;align=left;verticalAlign=top;spacingLeft=4;spacingRight=4;overflow=hidden;rotatable=0;points=[[0,0.5],[1,0.5]];portConstraint=eastwest;whiteSpace=wrap;html=1;" vertex="1" parent="ZDAbo7Fi6QDQOSL8yRWi-12">
          <mxGeometry y="234" width="265" height="26" as="geometry" />
        </mxCell>
        <mxCell id="ZDAbo7Fi6QDQOSL8yRWi-22" value="+ CreatedBy: UserReference" style="text;strokeColor=none;fillColor=none;align=left;verticalAlign=top;spacingLeft=4;spacingRight=4;overflow=hidden;rotatable=0;points=[[0,0.5],[1,0.5]];portConstraint=eastwest;whiteSpace=wrap;html=1;" vertex="1" parent="ZDAbo7Fi6QDQOSL8yRWi-12">
          <mxGeometry y="260" width="265" height="26" as="geometry" />
        </mxCell>
        <mxCell id="ZDAbo7Fi6QDQOSL8yRWi-24" value="&lt;p style=&quot;margin:0px;margin-top:4px;text-align:center;&quot;&gt;&lt;i&gt;&amp;lt;&amp;lt;Struct&amp;gt;&amp;gt;&lt;/i&gt;&lt;br&gt;&lt;b&gt;TaskStatus&lt;/b&gt;&lt;/p&gt;&lt;hr size=&quot;1&quot;&gt;&lt;p style=&quot;margin:0px;margin-left:4px;&quot;&gt;INITIAL: Initial&lt;/p&gt;&lt;p style=&quot;margin:0px;margin-left:4px;&quot;&gt;INPROGRESS: In Progress&lt;/p&gt;&lt;p style=&quot;margin:0px;margin-left:4px;&quot;&gt;COMPLETE: Complete&lt;/p&gt;&lt;p style=&quot;margin:0px;margin-left:4px;&quot;&gt;ABORT: Abort&lt;/p&gt;&lt;p style=&quot;margin:0px;margin-left:4px;&quot;&gt;&lt;br&gt;&lt;/p&gt;" style="verticalAlign=top;align=left;overflow=fill;fontSize=12;fontFamily=Helvetica;html=1;whiteSpace=wrap;" vertex="1" parent="1">
          <mxGeometry x="610" y="-562" width="190" height="110" as="geometry" />
        </mxCell>
        <mxCell id="ZDAbo7Fi6QDQOSL8yRWi-25" value="TaskReference" style="swimlane;fontStyle=0;childLayout=stackLayout;horizontal=1;startSize=26;fillColor=none;horizontalStack=0;resizeParent=1;resizeParentMax=0;resizeLast=0;collapsible=1;marginBottom=0;" vertex="1" parent="1">
          <mxGeometry x="250" y="-562" width="140" height="104" as="geometry" />
        </mxCell>
        <mxCell id="ZDAbo7Fi6QDQOSL8yRWi-26" value="Code: string" style="text;strokeColor=none;fillColor=none;align=left;verticalAlign=top;spacingLeft=4;spacingRight=4;overflow=hidden;rotatable=0;points=[[0,0.5],[1,0.5]];portConstraint=eastwest;" vertex="1" parent="ZDAbo7Fi6QDQOSL8yRWi-25">
          <mxGeometry y="26" width="140" height="26" as="geometry" />
        </mxCell>
        <mxCell id="ZDAbo7Fi6QDQOSL8yRWi-27" value="FieldName: string[0..1]" style="text;strokeColor=none;fillColor=none;align=left;verticalAlign=top;spacingLeft=4;spacingRight=4;overflow=hidden;rotatable=0;points=[[0,0.5],[1,0.5]];portConstraint=eastwest;" vertex="1" parent="ZDAbo7Fi6QDQOSL8yRWi-25">
          <mxGeometry y="52" width="140" height="26" as="geometry" />
        </mxCell>
        <mxCell id="ZDAbo7Fi6QDQOSL8yRWi-28" value="CacheCode: string[0..1]" style="text;strokeColor=none;fillColor=none;align=left;verticalAlign=top;spacingLeft=4;spacingRight=4;overflow=hidden;rotatable=0;points=[[0,0.5],[1,0.5]];portConstraint=eastwest;" vertex="1" parent="ZDAbo7Fi6QDQOSL8yRWi-25">
          <mxGeometry y="78" width="140" height="26" as="geometry" />
        </mxCell>
        <mxCell id="ZDAbo7Fi6QDQOSL8yRWi-29" value="0..*" style="endArrow=open;html=1;endSize=12;startArrow=diamondThin;startSize=14;startFill=0;edgeStyle=orthogonalEdgeStyle;align=left;verticalAlign=bottom;rounded=0;exitX=0.75;exitY=1;exitDx=0;exitDy=0;entryX=0.5;entryY=0;entryDx=0;entryDy=0;" edge="1" parent="1" source="ZDAbo7Fi6QDQOSL8yRWi-10" target="ZDAbo7Fi6QDQOSL8yRWi-12">
          <mxGeometry x="0.7333" y="-5" relative="1" as="geometry">
            <mxPoint x="340" y="-640" as="sourcePoint" />
            <mxPoint x="500" y="-640" as="targetPoint" />
            <mxPoint as="offset" />
          </mxGeometry>
        </mxCell>
      </root>
    </mxGraphModel>
  </diagram>
</mxfile>
